<?xml version="1.0" encoding="iso-8859-1"?>
<!-- Generator: Adobe Illustrator 19.0.0, SVG Export Plug-In . SVG Version: 6.00 Build 0)  -->
<svg version="1.1" id="Capa_1" xmlns="http://www.w3.org/2000/svg" xmlns:xlink="http://www.w3.org/1999/xlink" x="0px" y="0px"
	 viewBox="0 0 504.034 504.034" style="enable-background:new 0 0 504.034 504.034;" xml:space="preserve">
<g>
	<polygon style="fill:#FFDE55;" points="348.824,155.21 348.824,155.21 348.824,155.21 286.953,93.338 49.956,330.335 
		111.827,392.206 	"/>
	<polygon style="fill:#FFC477;" points="410.696,217.081 379.76,186.145 348.824,155.21 111.827,392.206 173.699,454.078 
		410.696,217.081 	"/>
	<polygon style="fill:#FFEB99;" points="49.956,330.335 0,504.034 173.699,454.078 	"/>
	<polygon style="fill:#D80027;" points="442.162,61.872 504.034,123.743 380.29,0 286.953,93.338 348.824,155.21 	"/>
	<path style="fill:#D80027;" d="M410.696,217.081l-30.936-30.936L410.696,217.081z"/>
	<polygon style="fill:#C70024;" points="442.162,61.872 348.824,155.21 348.824,155.21 348.824,155.21 379.76,186.145 
		410.696,217.081 410.696,217.081 504.034,123.743 	"/>
</g>
<g>
</g>
<g>
</g>
<g>
</g>
<g>
</g>
<g>
</g>
<g>
</g>
<g>
</g>
<g>
</g>
<g>
</g>
<g>
</g>
<g>
</g>
<g>
</g>
<g>
</g>
<g>
</g>
<g>
</g>
</svg>
