<?xml version="1.0" encoding="iso-8859-1"?>
<!-- Generator: Adobe Illustrator 19.0.0, SVG Export Plug-In . SVG Version: 6.00 Build 0)  -->
<svg version="1.1" id="Layer_1" xmlns="http://www.w3.org/2000/svg" xmlns:xlink="http://www.w3.org/1999/xlink" x="0px" y="0px"
	 viewBox="0 0 506.419 506.419" style="enable-background:new 0 0 506.419 506.419;" xml:space="preserve">
<g>
	<polygon style="fill:none;" points="320.718,235.259 446.814,109.163 320.718,235.259 	"/>
	<path style="fill:#FFEB99;" d="M320.718,235.259L320.718,235.259l-42.427-42.427l0,0l0,0l-69.3,69.3
		c6.84,0.199,13.547,1.175,20.016,2.894c0.143,0.038,0.299,0.098,0.452,0.151c14.533,3.947,27.863,11.605,38.799,22.541
		c16.412,16.412,24.905,37.776,25.527,59.327l69.36-69.36L320.718,235.259L320.718,235.259z"/>
	<path style="fill:#A258CD;" d="M96.784,394.989C96.787,394.989,96.782,394.989,96.784,394.989
		c41.399,0,80.328-16.124,109.603-45.398c22.864-22.865,30.402-55.338,22.619-84.541c0.152,0.041,0.302,0.087,0.454,0.129
		c-0.153-0.053-0.309-0.113-0.452-0.151c-6.469-1.719-13.176-2.695-20.016-2.894c-0.867-0.025-1.735-0.042-2.605-0.042
		c-23.372,0-45.346,9.102-61.871,25.628c-21.718,21.717-50.596,33.678-81.314,33.679c-10.068,0.001-20.095-1.313-29.799-3.904
		L0,308.574l8.918,33.402c3.186,11.932,7.801,23.415,13.702,34.202c0.076,0.139,0.176,0.292,0.272,0.444
		c-0.083-0.151-0.173-0.298-0.256-0.449C45.121,388.456,70.449,394.989,96.784,394.989z"/>
	<path style="fill:#8034AD;" d="M229.459,265.178c-0.152-0.041-0.302-0.088-0.454-0.129c7.783,29.203,0.245,61.677-22.619,84.541
		c-29.274,29.274-68.203,45.398-109.602,45.398c-0.003,0,0.002,0-0.001,0c-26.335,0-51.663-6.533-74.147-18.816
		c0.083,0.151,0.173,0.298,0.256,0.449c7.013,12.72,15.798,24.476,26.162,34.84c29.276,29.276,68.2,45.399,109.602,45.399
		c0.003,0-0.002,0,0.001,0c41.398,0,80.327-16.124,109.602-45.398c17.704-17.704,26.196-41.17,25.526-64.417
		c-0.622-21.551-9.115-42.914-25.527-59.327C257.322,276.783,243.992,269.125,229.459,265.178z"/>
	<path style="fill:#EE8700;" d="M320.718,235.259L488.846,67.131l0,0l0,0c-11.333-11.333-26.4-17.574-42.427-17.574
		s-31.094,6.241-42.427,17.574L278.291,192.833l0,0L320.718,235.259z"/>
	<path style="fill:#CC7400;" d="M488.846,67.131L488.846,67.131L320.718,235.259l0,0l42.426,42.426l125.701-125.701
		c11.333-11.333,17.574-26.4,17.574-42.427C506.419,93.531,500.178,78.464,488.846,67.131z"/>
</g>
<g>
</g>
<g>
</g>
<g>
</g>
<g>
</g>
<g>
</g>
<g>
</g>
<g>
</g>
<g>
</g>
<g>
</g>
<g>
</g>
<g>
</g>
<g>
</g>
<g>
</g>
<g>
</g>
<g>
</g>
</svg>
